<?xml version="1.0" encoding="utf-8"?>
<!-- Generator: Adobe Illustrator 25.2.3, SVG Export Plug-In . SVG Version: 6.00 Build 0)  -->
<svg version="1.1" id="Layer_1" xmlns="http://www.w3.org/2000/svg" xmlns:xlink="http://www.w3.org/1999/xlink" x="0px" y="0px"
	 viewBox="0 0 500 500" style="enable-background:new 0 0 500 500;" xml:space="preserve">
<style type="text/css">
	.st0{fill:#C10F33;}
</style>
<path class="st0" d="M443.6,95.8V70.4V54.9l-15.5,0.6l-22.5,0.9c-3.2,0.1-6.4,0.2-9.6,0.2c-45.3,0-87.2-13.8-124.6-41l-12.7-9.3
	L250,0l-8.7,6.4l-12.7,9.3c-37.4,27.2-79.3,41-124.5,41c-3.2,0-6.4-0.1-9.7-0.2l-22.5-0.9l-15.5-0.6v15.5v22.5l0,3.6l0,0.1l0,0.1
	c0.3,17.9,0.5,36.4,1.1,55.2l0,0l0,0c1.2,32.5,5.2,65.3,12.2,97.3l0,0.1l0,0.1c12.4,55.4,35.5,105.5,68.7,148.8
	C150,413.7,163,428.3,178,443c14.6,14.3,30.9,28.4,50,43.1l10.7,8.3l7.4,5.7l8.3-4.1l12.1-6c3.9-2,7.4-4.5,10.5-7.6
	c3.3-2.8,6.7-5.6,10-8.3l0.5-0.4c8.9-7.3,18-14.9,26.9-23.2c36.2-33.4,64.9-71.6,85.5-113.6c22.2-45.1,35.4-95.4,40.6-153.8
	C442.9,157.3,443.9,129.7,443.6,95.8z M347.4,223.4c-7.5,37.4-21,71.6-40.1,101.6c-15.1,23.8-33.8,45.7-57,66.6
	c-13.9-12.7-26.6-26.1-37.9-40c-29.2-36-49-78.4-58.8-126.1l0-0.1l0-0.1c-5.3-24.5-8.4-51.3-9.5-81.9l0-0.1l0-0.1
	c0-0.7-0.1-1.4-0.1-2c38-5.1,73.6-17.1,106.2-35.9c32,18.4,67.6,30.4,106.2,35.8C355.3,172.4,352.4,198.8,347.4,223.4z"/>
</svg>
