<?xml version="1.0" encoding="utf-8"?>
<!-- Generator: Adobe Illustrator 25.2.3, SVG Export Plug-In . SVG Version: 6.00 Build 0)  -->
<svg version="1.1" id="Layer_1" xmlns="http://www.w3.org/2000/svg" xmlns:xlink="http://www.w3.org/1999/xlink" x="0px" y="0px"
	 viewBox="0 0 300.1 300" style="enable-background:new 0 0 300.1 300;" xml:space="preserve">
<style type="text/css">
	.st0{fill:#C10F33;}
	.st1{fill:#FFFFFF;stroke:#FFFFFF;stroke-width:16;stroke-miterlimit:10;}
</style>
<path class="st0" d="M228.4,300H71.6C32.1,300,0,268,0,228.4V71.6C0,32.1,32,0,71.6,0h156.9c39.5,0,71.6,32,71.6,71.6v156.9
	C300,268,268,300,228.4,300z"/>
<g>
	<path class="st1" d="M150,226.3c-6.1-4.7-11.9-9.6-17.3-14.9c-4.8-4.7-9.3-9.7-13.4-15.1c-11.4-14.9-18.9-31.6-23-49.9
		c-2.4-11.1-3.8-22.3-4.2-33.6c-0.2-6.7-0.3-13.4-0.4-20.2c0-0.4,0-0.8,0-1.2c21.5,0.9,40.9-5.1,58.2-17.7
		c17.3,12.6,36.7,18.6,58.2,17.7c0,0.3,0,0.7,0,1.1c0.1,10.3-0.1,20.6-1.1,30.9c-1.6,18.2-5.6,35.8-13.7,52.3
		c-7.1,14.5-16.9,27.2-28.7,38.1c-4.6,4.3-9.5,8.1-14.3,12.2C150.3,226.1,150.2,226.2,150,226.3z M149.9,219.6
		c0.2-0.1,0.2-0.1,0.3-0.1c0.9-0.7,1.8-1.4,2.7-2.2c11.5-9.4,21.6-20.1,29.6-32.7c8.3-13,13.7-27.2,16.7-42.2
		c3-14.8,3.8-29.8,3.8-44.8c0-0.3-0.1-0.5-0.1-0.6c-3.8-0.3-7.5-0.5-11.2-1c-14.8-2-28.5-6.9-40.9-15.4c-0.6-0.4-1-0.5-1.6,0
		c-15.5,10.5-32.7,15.7-51.4,16.2c-0.3,0-0.5,0.1-0.9,0.1c0,0.4,0,0.8,0,1.2c0.1,4.2,0.1,8.4,0.3,12.6c0.4,11,1.5,21.9,3.8,32.6
		c4,19.4,12,37,24.5,52.4C132.7,204.6,140.9,212.5,149.9,219.6z"/>
</g>
</svg>
