<?xml version="1.0" encoding="utf-8"?>
<!-- Generator: Adobe Illustrator 25.2.3, SVG Export Plug-In . SVG Version: 6.00 Build 0)  -->
<svg version="1.1" id="Layer_1" xmlns="http://www.w3.org/2000/svg" xmlns:xlink="http://www.w3.org/1999/xlink" x="0px" y="0px"
	 viewBox="0 0 1987 300" style="enable-background:new 0 0 1987 300;" xml:space="preserve">
<style type="text/css">
	.st0{fill:#FFFFFF;}
</style>
<g>
	<path class="st0" d="M285.1,238.7V16.1h136.5l-9.5,36.2h-81.5v56.2h75.6v35.2h-75.6V203h91.4l-10.5,35.8L285.1,238.7L285.1,238.7z"
		/>
	<path class="st0" d="M448.7,238.7V97.5l40.7-20.3V100c3.4-4.2,6.6-7.4,9.2-9.2c2.7-1.9,6.4-3.9,11.4-5.9c8.5-3.9,16.9-5.8,25.4-5.8
		c4.4,0,7.8,0.2,10.5,0.6c2.7,0.5,6.3,1.6,10.8,3.3c4.5,1.9,8.6,4.2,12.2,7.2c3.6,3,8,7.8,13.1,14.6C594.2,87.6,611,79,632.7,79
		c17.1,0,30.5,4.7,40.4,14.2c9.9,9.5,14.9,22.7,14.9,39.6v105.9h-40.7v-96.1c0-6.1-0.5-10.6-1.3-13.3c-0.8-2.7-2.7-5.5-5.6-8.3
		c-5-5.2-12.2-7.7-21.9-7.7c-20,0-29.9,10-29.9,29.9v95.5h-40.7v-94.2c0-5.6-0.5-9.9-1.6-13.1c-1.1-3.1-2.8-6.3-5.3-9.2
		c-2.5-3-5.6-5.2-9.4-6.6c-3.8-1.4-8.1-2.2-13.1-2.2c-19.4,0-29,10-29,29.9v95.5h-40.8L448.7,238.7L448.7,238.7z"/>
	<path class="st0" d="M881.7,137.4l-109.5,56.5c6.4,6.6,12.2,11.3,17.2,14.1c5.2,2.8,10.6,4.2,16.7,4.2c5.9,0,11.9-1.6,17.5-4.7
		c6.4-2.7,13-8.8,20-18.2l28.5,17.5c-1.7,2.2-3.4,4.5-5.3,6.9c-1.9,2.3-4.4,4.9-7.4,7.5c-6.7,7-15.3,12.5-25.7,16.6
		c-10.3,4.1-20.8,5.9-31.5,5.9c-23.5,0-43.2-7.8-59.2-23.6s-23.9-35.4-23.9-58.7s8-43,23.8-59.2c15.8-16.1,35.5-24.1,59-24.1
		c21.6,0,40.1,7,55.2,21.1c5.6,5,9.9,10,13.1,15C873.6,119.7,877.3,127.2,881.7,137.4z M758.4,167l79.7-40.4
		c-2.8-4.2-5.6-7.2-8.1-9.2c-2.5-2-6.1-3.9-10.6-5.8c-2.7-0.8-5.2-1.4-7.5-1.9s-5.2-0.6-8.5-0.6c-12.4,0-23.2,4.5-32.4,13.6
		S757,142.4,757,154.6L758.4,167z"/>
	<path class="st0" d="M906.4,238.7V97.8L946,77.2v28.2c3.8-5.6,6.9-9.7,9.7-12.4c2.8-2.7,6.4-5.2,11-7.2c4.5-2.2,8.8-3.8,12.5-4.9
		c3.8-1.1,7.8-1.6,11.9-1.6c2,0,3.8,0,5.3,0c1.4,0,4.5,0.5,9.2,1.3l-8.9,39.6l-12.1-1.6c-3.1,0-6.7,0.8-11,2.2
		c-4.2,1.4-7.8,3.3-10.6,5.6c-9.9,7-14.9,18.8-14.9,35.2v77.2h-41.8V238.7z"/>
	<path class="st0" d="M1125.2,98.7V82.6h39.6v150.5c0,11.7-1.6,21.3-4.5,28.5c-3,7.2-8.3,13.9-16,20c-14.6,12.2-35.1,18.3-61.2,18.3
		c-11.9,0-21.9-0.9-30-2.8c-8.1-1.9-14.4-3.8-18.9-5.6c-4.5-2-11.3-5.6-20.3-11l16.4-29.3c5.8,4.2,10,7,12.8,8.5s6.3,3,10.6,4.4
		c9.1,3.1,18.5,4.7,28.5,4.7c13.8,0,24.4-3,31.9-8.9c7.5-5.9,11.3-14.1,11.3-24.7v-17.4l-5.8,6.7c-4.4,4.5-10.2,8.1-17.7,10.8
		s-15.6,4.1-24.6,4.1c-21,0-38-7.4-51-21.9s-19.4-34-19.4-58.1c0-23.5,6.7-42.7,20.2-57.6c13.5-14.9,30.8-22.4,52-22.4
		c8.6,0,17.1,1.7,25.4,5c4.1,1.7,7.5,3.3,10.2,5.2C1117.1,91.4,1120.8,94.5,1125.2,98.7z M1049.6,159.6v3.1c0,13.8,3.6,24.9,11,33.2
		s16.9,12.5,28.6,12.5c14.2,0,24.1-5,29.6-15.2c2-3.8,3.4-7.4,4.1-11c0.6-3.6,0.9-9.4,0.9-17.2v-5.6v-19.4c0-2.2-0.3-4.5-1.1-6.9
		c-0.8-2.3-1.7-4.7-3-6.9c-2.7-4.4-6.7-7.8-12.4-10.6c-5.5-2.8-11.3-4.2-17.2-4.2c-12.1,0-21.8,4.4-29.3,13.3
		C1053.4,133.6,1049.6,145.2,1049.6,159.6z"/>
	<path class="st0" d="M1358.4,137.4l-109.5,56.5c6.4,6.6,12.2,11.3,17.2,14.1c5,2.8,10.6,4.2,16.7,4.2c5.9,0,11.9-1.6,17.5-4.7
		c6.4-2.7,13-8.8,20-18.2l28.5,17.5c-1.7,2.2-3.4,4.5-5.3,6.9c-1.9,2.3-4.4,4.9-7.4,7.5c-6.7,7-15.3,12.5-25.7,16.6
		c-10.3,4.1-20.8,5.9-31.5,5.9c-23.5,0-43.2-7.8-59.2-23.6c-16-15.8-23.9-35.4-23.9-58.7s8-43,23.8-59.2
		c15.8-16.1,35.5-24.1,59-24.1c21.6,0,40.1,7,55.2,21.1c5.6,5,9.9,10,13.1,15C1350.2,119.7,1354.1,127.2,1358.4,137.4z M1235.1,167
		l79.7-40.4c-2.8-4.2-5.6-7.2-8.1-9.2c-2.5-2-6.1-3.9-10.6-5.8c-2.7-0.8-5.2-1.4-7.5-1.9s-5.2-0.6-8.5-0.6
		c-12.4,0-23.2,4.5-32.4,13.6c-9.2,9.1-13.9,19.7-13.9,31.9L1235.1,167z"/>
	<path class="st0" d="M1383.1,97.5l39.6-20.3v25.7l9.2-9.5c11.1-9.4,25.2-14.2,42.3-14.2c17.7,0,32.4,5.3,44.1,16.1
		c9.2,9.1,13.9,22.2,13.9,39.6v104.1h-41.6v-92.5c0-9.9-2-17.4-6.1-22.2c-5.9-6.4-14.2-9.5-24.7-9.5c-10,0-18.5,3.4-25,10.2
		c-6.6,6.9-9.9,15.5-9.9,26V239h-41.3L1383.1,97.5z"/>
	<path class="st0" d="M1696.9,91.1l-11.1,32.4c-12.4-7.4-23.5-11.1-33.3-11.1c-12.8,0-23.6,4.5-32.6,13.8
		c-8.9,9.1-13.5,20.5-13.5,34c0,13.6,4.7,25,14.1,34.3c9.4,9.4,20.7,13.9,34.1,13.9c7.8,0,18-3.1,30.5-9.2l11.4,29.9
		c-11,5.6-20,9.4-27.2,11.6c-7.2,2-14.9,3.1-23.2,3.1c-22.8,0-42.4-8-58.5-23.9s-24.3-35.5-24.3-58.5c0-23.5,8.1-43.2,24.4-59.3
		c16.3-16.1,36.2-24.1,59.6-24.1c8.9,0,16.4,0.8,22.5,2.5C1676.1,82,1685.1,85.6,1696.9,91.1z"/>
	<path class="st0" d="M1723.3,238.7V36.5l45.4-20.3v222.7L1723.3,238.7L1723.3,238.7z"/>
	<path class="st0" d="M1784.5,238.7L1862,16h47.9l77.2,222.7h-49.5l-17.8-59h-67.6l-18.2,59H1784.5z M1882,68.9l-22.8,78.1h53.4
		L1890,68.9c-1.1-3.4-1.9-6.9-2.5-10.2c-0.6-3.3-1.1-6.7-1.6-10.5c-0.6,5.8-1.1,9.7-1.4,11.6C1884.4,61.7,1883.6,64.8,1882,68.9z"/>
</g>
<g>
	<g>
		<path class="st0" d="M103.6,254.3c-9.5-7.4-18.6-15-27.1-23.3c-7.5-7.4-14.6-15.2-21-23.6c-17.8-23.3-29.6-49.5-36-78.1
			c-3.8-17.4-5.9-34.9-6.6-52.6c-0.3-10.5-0.5-21-0.6-31.6c0-0.6,0-1.3,0-1.9c33.6,1.4,64-8,91.1-27.7
			c27.1,19.7,57.4,29.1,91.1,27.7c0,0.5,0,1.1,0,1.7c0.2,16.1-0.2,32.2-1.7,48.4c-2.5,28.5-8.8,56-21.4,81.8
			c-11.1,22.7-26.4,42.6-44.9,59.6c-7.2,6.7-14.9,12.7-22.4,19.1C104.1,254,103.8,254.1,103.6,254.3z M103.4,243.8
			c0.3-0.2,0.3-0.2,0.5-0.2c1.4-1.1,2.8-2.2,4.2-3.4c18-14.7,33.8-31.5,46.3-51.2c13-20.3,21.4-42.6,26.1-66
			c4.7-23.2,5.9-46.6,5.9-70.1c0-0.5-0.2-0.8-0.2-0.9c-5.9-0.5-11.7-0.8-17.5-1.6c-23.2-3.1-44.6-10.8-64-24.1
			c-0.9-0.6-1.6-0.8-2.5,0C78.1,42.7,51.2,50.9,21.9,51.6c-0.5,0-0.8,0.2-1.4,0.2c0,0.6,0,1.3,0,1.9c0.2,6.6,0.2,13.1,0.5,19.7
			c0.6,17.2,2.3,34.3,5.9,51c6.3,30.4,18.8,57.9,38.3,82C76.4,220.3,89.4,232.7,103.4,243.8z"/>
		<path class="st0" d="M102.8,269.5l-6.9-5.3C85.3,256,76.1,248,67.8,239.9c-8.1-8-15.5-16.3-22.1-24.9
			c-18.6-24.3-31.5-52.3-38.2-83.1C3.6,114.6,1.4,96.1,0.6,77c-0.3-7.5-0.3-14.9-0.5-22.2c0-3.1-0.2-6.4-0.2-9.5c0-0.5,0-0.9,0-1.6
			V30l13,0.6c30.7,1.3,57.9-6.9,83.3-25.4l7.4-5.3l7.4,5.3c25.4,18.3,52.6,26.6,83.3,25.4l13-0.5v14.6c0.2,19.4-0.5,35.1-1.7,49.5
			c-3,33.2-10.3,61.3-22.7,86.2c-11.4,23.3-27.5,44.6-47.7,63.4c-5.2,4.9-10.6,9.4-16,13.6c-2.3,1.9-4.5,3.8-6.9,5.8
			c-0.9,0.8-1.7,1.3-2.2,1.6L102.8,269.5z M33.2,63.4c0,3.1,0.2,6.3,0.3,9.4c0.6,18.2,2.5,34.1,5.6,49c5.9,29,18,54.8,35.7,76.7
			c8.3,10.3,17.7,19.9,28.6,29.3c16.7-14.2,29.9-29.1,40.2-45.4c11.6-18.2,19.7-39,24.4-61.8c3.4-16.9,5.2-35.2,5.6-57.1
			c-2.2-0.2-4.4-0.5-6.7-0.8c-23.3-3.1-44.6-10.6-63.7-22.4C82.2,53.4,58.7,61.2,33.2,63.4z"/>
	</g>
</g>
</svg>
