<?xml version="1.0" encoding="utf-8"?>
<!-- Generator: Adobe Illustrator 25.2.3, SVG Export Plug-In . SVG Version: 6.00 Build 0)  -->
<svg version="1.1" id="Layer_1" xmlns="http://www.w3.org/2000/svg" xmlns:xlink="http://www.w3.org/1999/xlink" x="0px" y="0px"
	 viewBox="0 0 1455.8 300" style="enable-background:new 0 0 1455.8 300;" xml:space="preserve">
<style type="text/css">
	.st0{fill:#C10F33;}
	.st1{fill:#FFFFFF;}
	.st2{fill:#FFFFFF;stroke:#FFFFFF;stroke-width:2;stroke-miterlimit:10;}
</style>
<g>
	<path class="st0" d="M1417.7,300H38.1C17.1,300,0,282.9,0,261.9V38.1C0,17.1,17.1,0,38.1,0h1379.6c21.1,0,38.1,17.1,38.1,38.1
		v223.8C1455.8,282.9,1438.7,300,1417.7,300z"/>
	<g>
		<path class="st1" d="M407.3,200.7h-70.9V67h67.9v14.2h-52.2v44.5h48.3v14.1h-48.3v46.8h55.2V200.7z"/>
		<path class="st1" d="M562.2,200.7h-15.3v-54.8c0-10.6-1.6-18.2-4.9-22.9c-3.3-4.7-8.7-7.1-16.5-7.1c-6.5,0-12.1,3-16.6,9
			c-4.6,6-6.9,13.1-6.9,21.4v54.4h-15.3V144c0-18.8-7.2-28.2-21.7-28.2c-6.7,0-12.2,2.8-16.6,8.4s-6.5,12.9-6.5,22v54.4h-15.3v-95.5
			h15.3v15.1h0.4c6.8-11.6,16.7-17.3,29.7-17.3c6.5,0,12.2,1.8,17.1,5.5c4.8,3.6,8.2,8.4,10,14.3c7.1-13.2,17.7-19.8,31.7-19.8
			c21,0,31.5,13,31.5,38.9L562.2,200.7L562.2,200.7z"/>
		<path class="st1" d="M663.4,156.8H596c0.2,10.6,3.1,18.8,8.6,24.6s13,8.7,22.6,8.7c10.8,0,20.6-3.5,29.6-10.6v14.4
			c-8.4,6.1-19.5,9.1-33.3,9.1c-13.5,0-24.1-4.3-31.8-13s-11.6-20.9-11.6-36.6c0-14.9,4.2-27,12.6-36.3c8.4-9.4,18.9-14,31.4-14
			s22.2,4,29,12.1s10.3,19.3,10.3,33.7L663.4,156.8L663.4,156.8z M647.8,143.8c-0.1-8.8-2.2-15.7-6.4-20.6s-10-7.4-17.5-7.4
			c-7.2,0-13.3,2.6-18.4,7.7c-5,5.2-8.1,11.9-9.3,20.2h51.6V143.8z"/>
		<path class="st1" d="M732,120.7c-2.7-2.1-6.5-3.1-11.6-3.1c-6.5,0-12,3.1-16.4,9.2c-4.4,6.2-6.6,14.5-6.6,25.2v48.7h-15.3v-95.5
			h15.3v19.7h0.4c2.2-6.7,5.5-11.9,10-15.7c4.5-3.8,9.5-5.6,15-5.6c4,0,7,0.4,9.1,1.3L732,120.7L732,120.7z"/>
		<path class="st1" d="M825.7,193c0,35.1-16.8,52.6-50.3,52.6c-11.8,0-22.1-2.2-31-6.7v-15.3c10.8,6,21,9,30.8,9
			c23.5,0,35.2-12.5,35.2-37.5v-10.4H810c-7.3,12.2-18.2,18.3-32.8,18.3c-11.9,0-21.4-4.2-28.7-12.7c-7.2-8.5-10.9-19.9-10.9-34.2
			c0-16.2,3.9-29.1,11.7-38.7s18.5-14.4,32-14.4c12.9,0,22.4,5.2,28.6,15.5h0.4v-13.2h15.3V193H825.7z M810.4,157.5v-14.1
			c0-7.6-2.6-14.1-7.7-19.5c-5.1-5.4-11.5-8.1-19.2-8.1c-9.4,0-16.8,3.4-22.2,10.3c-5.3,6.9-8,16.5-8,28.9c0,10.6,2.6,19.1,7.7,25.5
			c5.1,6.4,11.9,9.6,20.4,9.6c8.6,0,15.6-3,20.9-9.1C807.7,174.8,810.4,167,810.4,157.5z"/>
		<path class="st1" d="M929,156.8h-67.4c0.2,10.6,3.1,18.8,8.6,24.6s13,8.7,22.6,8.7c10.8,0,20.6-3.5,29.6-10.6v14.4
			c-8.4,6.1-19.5,9.1-33.3,9.1c-13.5,0-24.1-4.3-31.8-13s-11.6-20.9-11.6-36.6c0-14.9,4.2-27,12.6-36.3c8.4-9.4,18.9-14,31.4-14
			s22.2,4,29,12.1s10.3,19.3,10.3,33.7L929,156.8L929,156.8z M913.3,143.8c-0.1-8.8-2.2-15.7-6.4-20.6s-10-7.4-17.5-7.4
			c-7.2,0-13.3,2.6-18.4,7.7c-5,5.2-8.1,11.9-9.3,20.2h51.6V143.8z"/>
		<path class="st1" d="M1026.9,200.7h-15.3v-54.4c0-20.3-7.4-30.4-22.2-30.4c-7.6,0-14,2.9-19,8.6c-5,5.8-7.5,13-7.5,21.8v54.4
			h-15.3v-95.5H963v15.9h0.4C970.6,109,981,103,994.7,103c10.4,0,18.4,3.4,24,10.1c5.5,6.7,8.3,16.5,8.3,29.2L1026.9,200.7
			L1026.9,200.7z"/>
		<path class="st1" d="M1116.4,196.3c-7.3,4.4-16,6.6-26.1,6.6c-13.6,0-24.6-4.4-33-13.3c-8.4-8.9-12.5-20.3-12.5-34.5
			c0-15.7,4.5-28.4,13.5-37.9s21-14.3,36.1-14.3c8.4,0,15.8,1.6,22.2,4.7v15.7c-7.1-5-14.7-7.5-22.7-7.5c-9.8,0-17.8,3.5-24,10.5
			c-6.2,7-9.4,16.2-9.4,27.6c0,11.2,2.9,20,8.8,26.5s13.8,9.7,23.6,9.7c8.3,0,16.2-2.8,23.5-8.3V196.3z"/>
		<path class="st1" d="M1211.9,156.8h-67.4c0.2,10.6,3.1,18.8,8.6,24.6s13,8.7,22.6,8.7c10.8,0,20.6-3.5,29.6-10.6v14.4
			c-8.4,6.1-19.5,9.1-33.3,9.1c-13.5,0-24.1-4.3-31.8-13c-7.7-8.7-11.6-20.9-11.6-36.6c0-14.9,4.2-27,12.6-36.3
			c8.4-9.4,18.9-14,31.4-14s22.2,4,29,12.1s10.3,19.3,10.3,33.7L1211.9,156.8L1211.9,156.8z M1196.2,143.8
			c-0.1-8.8-2.2-15.7-6.4-20.6c-4.2-4.9-10-7.4-17.5-7.4c-7.2,0-13.3,2.6-18.4,7.7c-5,5.2-8.1,11.9-9.3,20.2h51.6V143.8z"/>
		<path class="st1" d="M1336.2,200.7h-17.3l-14.2-37.5H1248l-13.3,37.5h-17.4L1268.5,67h16.2L1336.2,200.7z M1299.5,149.1l-21-57
			c-0.7-1.9-1.4-4.8-2.1-9h-0.4c-0.6,3.8-1.3,6.8-2.1,9l-20.8,57H1299.5z"/>
		<path class="st1" d="M1380.2,67v13.4h-13.1v106.8h13.1v13.4h-41.8v-13.4h13.1V80.4h-13.1V67H1380.2z"/>
	</g>
	<g>
		<g>
			<g>
				<path class="st1" d="M172.5,227.5c-2-0.1-4-0.2-5.8-0.3c-5.8-0.3-10.8-0.5-15.9-0.9c-17.4-1.4-32.7-4.4-46.7-9
					c-9.2-3-16.9-6.6-23.6-10.9c-7.3-4.6-12.2-9.3-15.5-14.8c-5.6-9.3-5.3-18.6,0.8-27.7c3.4-5.1,8.2-9.5,14.6-13.5
					c2.1-1.3,4.4-2.5,6.5-3.6c1.6-0.8,3.2-1.7,4.7-2.5c0.3-0.2,0.6-0.6,0.7-0.9c1.9-8.4,4.3-15.9,7.2-22.9
					c4.3-10.2,9.2-19.1,15.2-27.1c2.6-3.6,5.5-7,8.3-10.3l1.5-1.8c5.8-6.8,12.7-13.1,21.1-19.4c7.7-5.8,15.8-10.7,24.7-15
					c1-0.5,1.9-0.7,2.9-0.7c1,0,1.9,0.2,3,0.7c8.4,4,16.4,8.9,24,14.5c5.7,4.2,11.2,8.9,16.3,13.9c4.9,4.9,9.8,10.5,15.3,17.9
					c7.9,10.8,14,22.7,18.2,35.5c1.1,3.4,2,6.9,2.9,10.3c0.4,1.4,0.7,2.8,1.1,4.2c0.2,0.7,0.4,0.9,0.8,1c6.4,2.9,12,6.2,16.7,10
					c4.8,3.9,10.6,9.3,12.9,17.6c1.7,6,1.1,12-1.9,17.7c-2.9,5.8-7.6,10.8-14.7,15.6c-8.1,5.5-17.4,9.7-29.5,13.3
					c-13,4-26.7,6.5-40.6,7.6c-7,0.5-14,0.9-20.1,1.2C175.9,227.3,172.5,227.5,172.5,227.5L172.5,227.5z M89.3,154.4
					c-2.1,1.2-4.2,2.3-6.2,3.6c-6,3.9-9.8,7.7-12.3,12.3c-2.4,4.4-2.9,8.6-1.4,13c1.4,4.1,4.1,7.8,8.3,11.5
					c6.6,5.7,14.2,9.3,20.1,11.8c8.5,3.5,17.9,6.3,29.5,8.7c8.7,1.7,18,3,27.5,3.7c6,0.5,12.1,0.7,18,0.7c7.2,0,14.4-0.3,21.6-1
					c12.1-1.1,23.6-3,34-5.7c11.2-2.9,20.7-6.4,29.1-10.9c5.4-3,11.5-6.8,15.9-12.8c3.3-4.5,4.5-8.7,3.8-13.3
					c-0.5-3.2-2-6.3-4.4-9.3c-2.9-3.7-6.6-6.8-12-10.1c-1.5-0.9-3-1.8-5.1-2.9c0.9,7.8,1.8,16,1.6,24.2l0,0.7l-0.7,0.2
					c-2,0.7-3.8,1.4-5.5,2.1l-0.1,0c-5.6,1.9-11.2,3.9-16.7,5.9c-5.6,2-11.2,4-16.8,5.9c-7.2,2.5-14.5,5.1-21.7,7.7
					c-7.2,2.6-14.5,5.2-21.7,7.7c-0.3,0.1-0.7,0.2-1.1,0.2c-0.4,0-0.8-0.1-1.2-0.2c-1.8-0.6-3.7-1.3-5.6-2c-1.9-0.7-3.7-1.3-5.6-2
					c-7.8-2.8-15.6-5.5-23.5-8.3c-7.8-2.8-15.6-5.5-23.4-8.3c-7.8-2.8-15.7-5.5-23.4-8.2c-0.6-0.2-1.8-0.6-1.8-2.2
					c0.1-2.1,0.2-4.1,0.3-6.1c0.1-3,0.3-6.1,0.5-9.1c0.1-2.1,0.4-4.2,0.6-6.2c0.1-0.7,0.2-1.3,0.2-2C90,154,89.6,154.2,89.3,154.4z
					 M173.1,54.5c-0.2,0-0.4,0-0.5,0.1c-1.2,0.5-2.6,1.2-4,2c-8.7,4.6-16.9,10.1-24.9,16.9c-7.7,6.4-14.8,13.9-20.9,22
					c-8.8,11.7-15.5,24.6-19.7,38.2c-3.8,12.2-6,25.2-6.3,38.7c0,0.8,0.1,0.9,0.7,1c2.4,0.8,4.7,1.6,7,2.5c1.5,0.5,2.9,1.1,4.4,1.6
					l23.7,8.4c6.7,2.4,13.3,4.7,19.9,7.1c6.6,2.3,13.2,4.7,19.9,7c0.3,0.1,0.6,0.2,0.9,0.2c0.3,0,0.6-0.1,0.8-0.1
					c8.5-3,17.5-6.2,27.8-9.8c6.9-2.5,13.9-4.9,20.8-7.4c6.9-2.4,13.8-4.9,20.7-7.3c1.1-0.4,2.3-0.9,3.4-1.3c0.9-0.3,1.9-0.7,2.8-1
					v-0.1c-0.2-7.1-0.6-14.8-2.1-22.2c-1.2-5.6-2.7-12.3-4.8-19.1c-2.9-9.4-7.4-18.8-13.8-28.6c-4.5-7-9.8-13.7-15.8-19.7
					c-4.6-4.7-9.4-8.8-13.5-12.2c-7.7-6.4-16.5-11.9-26-16.5C173.5,54.5,173.3,54.5,173.1,54.5z"/>
				<path class="st1" d="M173.2,47.2c0.8,0,1.7,0.2,2.6,0.6c8.4,4,16.3,8.8,23.8,14.4c5.7,4.2,11.1,8.8,16.2,13.8
					c5.6,5.5,10.5,11.5,15.2,17.8c7.9,10.8,13.9,22.5,18.1,35.2c1.6,4.7,2.7,9.6,4,14.4c0.2,0.9,0.6,1.4,1.4,1.7
					c5.8,2.6,11.4,5.8,16.4,9.8c5.7,4.6,10.5,9.8,12.6,17.1c1.7,5.9,1,11.6-1.8,17c-3.3,6.5-8.5,11.2-14.4,15.2
					c-9,6.1-18.9,10.1-29.2,13.2c-13.2,4-26.7,6.5-40.4,7.6c-9,0.7-17.9,1.1-25.2,1.5c-8.3-0.4-15-0.6-21.7-1.2
					c-15.8-1.3-31.4-4-46.5-9c-8.2-2.7-16.1-6.1-23.4-10.8c-6-3.8-11.5-8.3-15.2-14.5c-5.4-9-5.1-17.9,0.8-26.6
					c3.7-5.5,8.7-9.7,14.3-13.2c3.6-2.2,7.5-4,11.2-6.1c0.5-0.3,1-0.9,1.2-1.5c1.8-7.8,4.1-15.4,7.2-22.8c4-9.6,8.9-18.6,15.1-26.9
					c3.1-4.2,6.5-8.1,9.8-12c6.2-7.2,13.3-13.5,20.9-19.2c7.7-5.8,15.8-10.7,24.5-14.9C171.6,47.4,172.4,47.2,173.2,47.2 M173.2,201
					c0.4,0,0.9-0.1,1.2-0.2c9.2-3.2,18.5-6.5,27.7-9.8c13.8-4.9,27.7-9.8,41.5-14.7c2.3-0.9,4.6-1.7,6.9-2.6c0-0.3,0-0.6,0-0.8
					c-0.2-7.5-0.6-15-2.1-22.4c-1.4-6.5-2.9-12.9-4.8-19.2c-3.2-10.3-8.1-19.9-13.9-28.9c-4.6-7.2-9.9-13.8-15.9-19.9
					c-4.3-4.4-8.9-8.4-13.6-12.3c-8-6.6-16.8-12.1-26.2-16.6c-0.2-0.1-0.6-0.1-0.9-0.1c-0.3,0-0.6,0.1-0.8,0.1
					c-1.4,0.6-2.8,1.3-4.1,2c-9,4.7-17.3,10.4-25.1,17c-7.9,6.6-14.9,14-21.1,22.2c-8.8,11.7-15.5,24.5-19.9,38.5
					c-4,12.7-6,25.7-6.3,39c0,1.1,0.3,1.7,1.4,2c3.8,1.3,7.6,2.7,11.3,4c7.9,2.8,15.8,5.6,23.7,8.4c13.3,4.7,26.5,9.4,39.8,14.1
					C172.4,200.9,172.8,201,173.2,201 M173.1,207.4c-0.3,0-0.6-0.1-0.8-0.2c-3.7-1.3-7.5-2.7-11.2-4c-15.6-5.5-31.3-11.1-46.9-16.6
					c-7.8-2.8-15.6-5.5-23.4-8.2c-0.6-0.2-1.1-0.4-1.1-1.3c0.3-5,0.4-10.1,0.8-15.1c0.2-3.5,0.7-6.7,1-10c-0.4,0.2-0.6,0.2-0.9,0.4
					c-2.7,1.5-5.4,2.9-8,4.6c-5.1,3.3-9.7,7.2-12.6,12.7c-2.4,4.4-3.1,8.9-1.5,13.8c1.7,4.9,4.8,8.6,8.6,11.9
					c6.1,5.3,13.1,8.9,20.4,12c9.6,4,19.6,6.7,29.7,8.8c9.1,1.8,18.3,3,27.6,3.7c6,0.5,12.1,0.7,18.1,0.7c7.2,0,14.5-0.3,21.7-1
					c11.5-1,23-2.8,34.2-5.7c10.2-2.6,20-6,29.3-11c6.2-3.4,12-7.3,16.2-13.1c3.1-4.2,4.8-8.7,4-14c-0.6-3.7-2.3-6.9-4.6-9.8
					c-3.4-4.3-7.7-7.5-12.3-10.3c-2.1-1.3-4.3-2.5-6.8-3.8c1.1,8.9,2,17.4,1.8,26c-2,0.7-3.8,1.4-5.6,2.1
					c-11.2,3.9-22.3,7.9-33.5,11.8c-14.5,5.1-28.9,10.3-43.4,15.4C173.7,207.4,173.4,207.4,173.1,207.4 M173.2,45.2L173.2,45.2
					c-1.1,0-2.2,0.3-3.4,0.8c-8.9,4.3-17.1,9.3-24.8,15.1c-8.4,6.3-15.3,12.7-21.2,19.5c-0.5,0.6-1,1.2-1.5,1.8
					c-2.8,3.3-5.7,6.7-8.4,10.3c-6,8.1-11,17-15.3,27.3c-2.9,7-5.3,14.5-7.3,23c-0.1,0.1-0.2,0.3-0.3,0.4c-1.5,0.8-3.1,1.7-4.6,2.5
					c-2.2,1.1-4.4,2.3-6.6,3.6c-6.6,4.1-11.4,8.6-14.9,13.8c-6.4,9.4-6.7,19.1-0.9,28.7c3.4,5.6,8.4,10.4,15.8,15.2
					c6.8,4.3,14.6,8,23.8,11c14.1,4.7,29.5,7.7,47,9.1c5.1,0.5,10.1,0.7,16,0.9c1.9,0.1,3.8,0.2,5.8,0.3l0.1,0l0.1,0
					c1.6-0.1,3.3-0.2,5.1-0.3c6.2-0.3,13.2-0.7,20.2-1.2c14-1.1,27.7-3.7,40.8-7.7c12.1-3.7,21.6-7.9,29.7-13.5
					c7.2-4.9,12-10,15.1-16c3.1-6,3.7-12.2,1.9-18.5c-2.5-8.5-8.4-14.2-13.3-18.1c-4.8-3.8-10.4-7.2-16.8-10.1l-0.1,0l-0.1,0
					c0,0-0.1,0-0.1,0c0,0,0-0.1-0.1-0.2l0,0l0,0c-0.4-1.4-0.7-2.8-1.1-4.2c-0.9-3.4-1.8-6.9-2.9-10.3c-4.2-12.8-10.4-24.9-18.4-35.7
					c-5.5-7.4-10.4-13.2-15.4-18c-5.1-5-10.7-9.7-16.4-14C193.2,54.9,185,50,176.7,46l0,0l0,0C175.4,45.4,174.3,45.2,173.2,45.2
					L173.2,45.2z M173,55.5c0,0,0.1,0,0.1,0c0,0,0.1,0,0.1,0c9.4,4.5,18.1,10,25.7,16.3c4.1,3.4,8.9,7.5,13.4,12.2
					c5.9,6,11.2,12.6,15.6,19.6c6.3,9.8,10.8,19.1,13.7,28.4c2,6.7,3.5,13.4,4.8,19c1.4,7.1,1.8,14.5,2,21.4
					c-0.7,0.3-1.4,0.5-2.1,0.8c-1.1,0.4-2.3,0.8-3.5,1.3c-6.9,2.4-13.8,4.9-20.7,7.3c-6.9,2.5-13.9,4.9-20.8,7.4
					c-10.2,3.7-19.3,6.9-27.7,9.8l-0.1,0l-0.1,0c-0.1,0-0.2,0.1-0.4,0.1s-0.4,0-0.4-0.1l-0.1,0l-0.1,0c-6.6-2.3-13.3-4.7-19.9-7
					c-6.6-2.4-13.3-4.7-19.9-7.1l-23.7-8.4c-1.4-0.5-2.9-1-4.4-1.6c-2.3-0.8-4.6-1.7-6.9-2.5l0,0c0,0,0-0.1,0-0.1
					c0.3-13.3,2.4-26.3,6.2-38.4c4.2-13.5,10.8-26.3,19.6-37.9c6.1-8.1,13.1-15.5,20.8-21.9c8-6.8,16.1-12.2,24.7-16.8
					C170.5,56.6,171.9,56,173,55.5L173,55.5z M174.6,209.2c7.2-2.5,14.6-5.2,21.7-7.7c7.1-2.5,14.4-5.1,21.7-7.7
					c5.6-1.9,11.3-4,16.8-5.9c5.5-1.9,11.1-3.9,16.7-5.9l0,0l0,0c1.8-0.7,3.6-1.4,5.5-2.1l1.3-0.5l0-1.4c0.2-7.7-0.5-15.2-1.4-22.5
					c1.2,0.7,2.3,1.3,3.3,1.9c5.3,3.3,9,6.3,11.8,9.8c2.3,2.9,3.7,5.8,4.2,8.9c0.6,4.3-0.5,8.3-3.6,12.5
					c-4.2,5.9-10.2,9.6-15.6,12.5c-8.2,4.4-17.7,8-28.8,10.8c-10.4,2.7-21.8,4.6-33.9,5.6c-7.2,0.6-14.4,1-21.5,1
					c-5.9,0-12-0.2-17.9-0.7c-9.4-0.7-18.7-1.9-27.4-3.7c-11.5-2.4-20.9-5.2-29.3-8.7c-5.9-2.5-13.4-6.1-19.9-11.7
					c-4.1-3.6-6.6-7-8-11c-1.3-4.1-0.9-8,1.4-12.2c2.4-4.5,6-8.2,11.9-12c1.8-1.2,3.6-2.2,5.4-3.2c0,0,0,0.1,0,0.1
					c-0.2,2-0.5,4.1-0.6,6.3c-0.2,3-0.4,6.1-0.5,9.1c-0.1,2-0.2,4-0.3,6l0,0.1v0.1c0,2.4,1.9,3,2.5,3.2c7.6,2.6,15.6,5.4,23.4,8.2
					c7.8,2.8,15.6,5.5,23.5,8.3c7.8,2.8,15.7,5.6,23.5,8.3c1.8,0.6,3.7,1.3,5.6,2c1.9,0.7,3.7,1.3,5.6,2c0.5,0.2,1,0.3,1.5,0.3
					C173.6,209.4,174.1,209.4,174.6,209.2L174.6,209.2z"/>
			</g>
		</g>
		<g>
			<path class="st2" d="M198.2,138.2c-0.6,13.4-6.4,24.1-17.3,31.9c-2,1.5-4.3,2.5-6.5,3.8c-0.9,0.5-1.7,0.4-2.6,0
				c-6.1-2.8-11.2-6.9-15.3-12.2c-6-7.6-8.5-16.4-8.6-25.9c0-1,0.3-1.4,1.2-1.7c6.5-2.3,13-4.4,19.3-6.9c3.4-1.4,6.3-1.3,9.6,0.1
				c6.1,2.4,12.3,4.5,18.4,6.5c1.6,0.5,2.2,1.3,1.9,2.9C198.2,137.1,198.2,137.6,198.2,138.2z M192.4,138.8
				c-0.2-0.1-0.5-0.5-0.9-0.6c-5.9-2.1-11.8-4.2-17.7-6.3c-0.4-0.1-0.8-0.2-1.2-0.1c-6,2.1-12,4.3-18,6.5c-0.3,0.1-0.8,0.8-0.7,1.2
				c0.7,3.5,1.2,7,2.4,10.3c2.8,7.9,8.4,13.5,15.6,17.7c0.9,0.5,1.7,0.5,2.6-0.1c3.9-2.3,7.4-5.1,10.3-8.6
				C189.4,153.2,191.8,146.6,192.4,138.8z"/>
		</g>
	</g>
</g>
</svg>
