<?xml version="1.0" encoding="utf-8"?>
<!-- Generator: Adobe Illustrator 25.2.3, SVG Export Plug-In . SVG Version: 6.00 Build 0)  -->
<svg version="1.1" id="Layer_1" xmlns="http://www.w3.org/2000/svg" xmlns:xlink="http://www.w3.org/1999/xlink" x="0px" y="0px"
	 viewBox="0 0 1359.8 300" style="enable-background:new 0 0 1359.8 300;" xml:space="preserve">
<style type="text/css">
	.st0{fill:#C10F33;}
	.st1{fill:#FFFFFF;}
	.st2{fill:#FFFFFF;stroke:#FFFFFF;stroke-width:16;stroke-miterlimit:10;}
</style>
<path class="st0" d="M1324.2,300H35.6C16,300,0,282.9,0,261.9V38.1C0,17.1,16,0,35.6,0h1288.6c19.7,0,35.6,17.1,35.6,38.1v223.8
	C1359.8,282.9,1343.8,300,1324.2,300z"/>
<g>
	<g>
		<path class="st1" d="M223.3,216.3V74.1h87.2l-6.1,23.1h-52.1v35.9h48.3v22.5h-48.3v37.9h58.4l-6.7,22.9L223.3,216.3L223.3,216.3z"
			/>
		<path class="st1" d="M327.8,216.3v-90.2l26-13v14.6c2.2-2.7,4.2-4.7,5.9-5.9c1.7-1.2,4.1-2.5,7.3-3.8c5.4-2.5,10.8-3.7,16.2-3.7
			c2.8,0,5,0.1,6.7,0.4s4,1,6.9,2.1c2.9,1.2,5.5,2.7,7.8,4.6s5.1,5,8.4,9.3c7.8-10.9,18.5-16.4,32.4-16.4c10.9,0,19.5,3,25.8,9.1
			c6.3,6.1,9.5,14.5,9.5,25.3v67.7h-26V155c0-3.9-0.3-6.8-0.8-8.5s-1.7-3.5-3.6-5.3c-3.2-3.3-7.8-4.9-14-4.9
			c-12.8,0-19.1,6.4-19.1,19.1v61h-26v-60.2c0-3.6-0.3-6.3-1-8.4c-0.7-2-1.8-4-3.4-5.9s-3.6-3.3-6-4.2s-5.2-1.4-8.4-1.4
			c-12.4,0-18.5,6.4-18.5,19.1v61h-26.1L327.8,216.3L327.8,216.3z"/>
		<path class="st1" d="M604.5,151.6l-70,36.1c4.1,4.2,7.8,7.2,11,9c3.3,1.8,6.8,2.7,10.7,2.7c3.8,0,7.6-1,11.2-3
			c4.1-1.7,8.3-5.6,12.8-11.6l18.2,11.2c-1.1,1.4-2.2,2.9-3.4,4.4s-2.8,3.1-4.7,4.8c-4.3,4.5-9.8,8-16.4,10.6
			c-6.6,2.6-13.3,3.8-20.1,3.8c-15,0-27.6-5-37.8-15.1s-15.3-22.6-15.3-37.5s5.1-27.5,15.2-37.8c10.1-10.3,22.7-15.4,37.7-15.4
			c13.8,0,25.6,4.5,35.3,13.5c3.6,3.2,6.3,6.4,8.4,9.6C599.3,140.3,601.7,145.1,604.5,151.6z M525.7,170.5l50.9-25.8
			c-1.8-2.7-3.6-4.6-5.2-5.9c-1.6-1.3-3.9-2.5-6.8-3.7c-1.7-0.5-3.3-0.9-4.8-1.2s-3.3-0.4-5.4-0.4c-7.9,0-14.8,2.9-20.7,8.7
			s-8.9,12.6-8.9,20.4L525.7,170.5z"/>
		<path class="st1" d="M620.3,216.3v-90l25.3-13.2v18c2.4-3.6,4.4-6.2,6.2-7.9c1.8-1.7,4.1-3.3,7-4.6c2.9-1.4,5.6-2.4,8-3.1
			s5-1,7.6-1c1.3,0,2.4,0,3.4,0c0.9,0,2.9,0.3,5.9,0.8l-5.7,25.3l-7.7-1c-2,0-4.3,0.5-7,1.4s-5,2.1-6.8,3.6
			c-6.3,4.5-9.5,12-9.5,22.5v49.3h-26.7V216.3z"/>
		<path class="st1" d="M760.1,126.9v-10.3h25.3v96.2c0,7.5-1,13.6-2.9,18.2c-1.9,4.6-5.3,8.9-10.2,12.8
			c-9.3,7.8-22.4,11.7-39.1,11.7c-7.6,0-14-0.6-19.2-1.8s-9.2-2.4-12.1-3.6c-2.9-1.3-7.2-3.6-13-7l10.5-18.7
			c3.7,2.7,6.4,4.5,8.2,5.4s4,1.9,6.8,2.8c5.8,2,11.8,3,18.2,3c8.8,0,15.6-1.9,20.4-5.7c4.8-3.8,7.2-9,7.2-15.8V203l-3.7,4.3
			c-2.8,2.9-6.5,5.2-11.3,6.9s-10,2.6-15.7,2.6c-13.4,0-24.3-4.7-32.6-14s-12.4-21.7-12.4-37.1c0-15,4.3-27.3,12.9-36.8
			c8.6-9.5,19.7-14.3,33.2-14.3c5.5,0,10.9,1.1,16.2,3.2c2.6,1.1,4.8,2.1,6.5,3.3C754.9,122.2,757.3,124.2,760.1,126.9z
			 M711.8,165.8v2c0,8.8,2.3,15.9,7,21.2s10.8,8,18.3,8c9.1,0,15.4-3.2,18.9-9.7c1.3-2.4,2.2-4.7,2.6-7c0.4-2.3,0.6-6,0.6-11v-3.6
			v-12.4c0-1.4-0.2-2.9-0.7-4.4s-1.1-3-1.9-4.4c-1.7-2.8-4.3-5-7.9-6.8c-3.5-1.8-7.2-2.7-11-2.7c-7.7,0-13.9,2.8-18.7,8.5
			C714.2,149.2,711.8,156.6,711.8,165.8z"/>
		<path class="st1" d="M909.1,151.6l-70,36.1c4.1,4.2,7.8,7.2,11,9s6.8,2.7,10.7,2.7c3.8,0,7.6-1,11.2-3c4.1-1.7,8.3-5.6,12.8-11.6
			L903,196c-1.1,1.4-2.2,2.9-3.4,4.4s-2.8,3.1-4.7,4.8c-4.3,4.5-9.8,8-16.4,10.6c-6.6,2.6-13.3,3.8-20.1,3.8c-15,0-27.6-5-37.8-15.1
			s-15.3-22.6-15.3-37.5s5.1-27.5,15.2-37.8c10.1-10.3,22.7-15.4,37.7-15.4c13.8,0,25.6,4.5,35.3,13.5c3.6,3.2,6.3,6.4,8.4,9.6
			C903.9,140.3,906.4,145.1,909.1,151.6z M830.3,170.5l50.9-25.8c-1.8-2.7-3.6-4.6-5.2-5.9c-1.6-1.3-3.9-2.5-6.8-3.7
			c-1.7-0.5-3.3-0.9-4.8-1.2s-3.3-0.4-5.4-0.4c-7.9,0-14.8,2.9-20.7,8.7s-8.9,12.6-8.9,20.4L830.3,170.5z"/>
		<path class="st1" d="M924.9,126.1l25.3-13v16.4l5.9-6.1c7.1-6,16.1-9.1,27-9.1c11.3,0,20.7,3.4,28.2,10.3
			c5.9,5.8,8.9,14.2,8.9,25.3v66.5h-26.6v-59.1c0-6.3-1.3-11.1-3.9-14.2c-3.8-4.1-9.1-6.1-15.8-6.1c-6.4,0-11.8,2.2-16,6.5
			c-4.2,4.4-6.3,9.9-6.3,16.6v56.4h-26.4L924.9,126.1z"/>
		<path class="st1" d="M1125.4,122l-7.1,20.7c-7.9-4.7-15-7.1-21.3-7.1c-8.2,0-15.1,2.9-20.8,8.8c-5.7,5.8-8.6,13.1-8.6,21.7
			c0,8.7,3,16,9,21.9c6,6,13.2,8.9,21.8,8.9c5,0,11.5-2,19.5-5.9l7.3,19.1c-7,3.6-12.8,6-17.4,7.4c-4.6,1.3-9.5,2-14.8,2
			c-14.6,0-27.1-5.1-37.4-15.3s-15.5-22.7-15.5-37.4c0-15,5.2-27.6,15.6-37.9c10.4-10.3,23.1-15.4,38.1-15.4
			c5.7,0,10.5,0.5,14.4,1.6C1112.1,116.2,1117.9,118.5,1125.4,122z"/>
		<path class="st1" d="M1142.3,216.3V87.1l29-13v142.3L1142.3,216.3L1142.3,216.3z"/>
		<path class="st1" d="M1181.4,216.3L1230.9,74h30.6l49.3,142.3h-31.6l-11.4-37.7h-43.2l-11.6,37.7H1181.4z M1243.7,107.8
			l-14.6,49.9h34.1l-14.4-49.9c-0.7-2.2-1.2-4.4-1.6-6.5s-0.7-4.3-1-6.7c-0.4,3.7-0.7,6.2-0.9,7.4
			C1245.2,103.2,1244.7,105.2,1243.7,107.8z"/>
	</g>
	<g>
		<path class="st2" d="M107.3,226.3c-6.1-4.7-11.9-9.6-17.3-14.9c-4.8-4.7-9.3-9.7-13.4-15.1c-11.4-14.9-18.9-31.6-23-49.9
			c-2.4-11.1-3.8-22.3-4.2-33.6c-0.2-6.7-0.3-13.4-0.4-20.2c0-0.4,0-0.8,0-1.2c21.5,0.9,40.9-5.1,58.2-17.7
			c17.3,12.6,36.7,18.6,58.2,17.7c0,0.3,0,0.7,0,1.1c0.1,10.3-0.1,20.6-1.1,30.9c-1.6,18.2-5.6,35.8-13.7,52.3
			c-7.1,14.5-16.9,27.2-28.7,38.1c-4.6,4.3-9.5,8.1-14.3,12.2C107.6,226.1,107.4,226.2,107.3,226.3z M107.2,219.6
			c0.2-0.1,0.2-0.1,0.3-0.1c0.9-0.7,1.8-1.4,2.7-2.2c11.5-9.4,21.6-20.1,29.6-32.7c8.3-13,13.7-27.2,16.7-42.2
			c3-14.8,3.8-29.8,3.8-44.8c0-0.3-0.1-0.5-0.1-0.6c-3.8-0.3-7.5-0.5-11.2-1c-14.8-2-28.5-6.9-40.9-15.4c-0.6-0.4-1-0.5-1.6,0
			C91,91.1,73.8,96.3,55.1,96.8c-0.3,0-0.5,0.1-0.9,0.1c0,0.4,0,0.8,0,1.2c0.1,4.2,0.1,8.4,0.3,12.6c0.4,11,1.5,21.9,3.8,32.6
			c4,19.4,12,37,24.5,52.4C89.9,204.6,98.2,212.5,107.2,219.6z"/>
	</g>
</g>
</svg>
