<?xml version="1.0" encoding="utf-8"?>
<!-- Generator: Adobe Illustrator 25.2.3, SVG Export Plug-In . SVG Version: 6.00 Build 0)  -->
<svg version="1.1" id="Layer_1" xmlns="http://www.w3.org/2000/svg" xmlns:xlink="http://www.w3.org/1999/xlink" x="0px" y="0px"
	 viewBox="0 0 1455.8 300" style="enable-background:new 0 0 1455.8 300;" xml:space="preserve">
<style type="text/css">
	.st0{fill:#C10F33;}
	.st1{fill:#FFFFFF;stroke:#FFFFFF;stroke-width:3;stroke-miterlimit:10;}
	.st2{fill:#FFFFFF;}
</style>
<path class="st0" d="M1417.7,300H38.1C17.1,300,0,282.9,0,261.9V38.1C0,17.1,17.1,0,38.1,0h1379.6c21.1,0,38.1,17.1,38.1,38.1v223.8
	C1455.8,282.9,1438.7,300,1417.7,300z"/>
<g>
	<g>
		<g>
			<path class="st1" d="M159,234.1c-2-0.1-4-0.2-5.8-0.3c-5.8-0.3-10.8-0.5-15.9-0.9c-17.4-1.4-32.7-4.4-46.7-9
				c-9.2-3-16.9-6.6-23.6-10.9c-7.3-4.6-12.2-9.3-15.5-14.8c-5.6-9.3-5.3-18.6,0.8-27.7c3.4-5.1,8.2-9.5,14.6-13.5
				c2.1-1.3,4.4-2.5,6.5-3.6c1.6-0.8,3.2-1.7,4.7-2.5c0.3-0.2,0.6-0.6,0.7-0.9c1.9-8.4,4.3-15.9,7.2-22.9
				c4.3-10.2,9.2-19.1,15.2-27.1c2.6-3.6,5.5-7,8.3-10.3l1.5-1.8c5.8-6.8,12.7-13.1,21.1-19.4c7.7-5.8,15.8-10.7,24.7-15
				c1-0.5,1.9-0.7,2.9-0.7s1.9,0.2,3,0.7c8.4,4,16.4,8.9,24,14.5c5.7,4.2,11.2,8.9,16.3,13.9c4.9,4.9,9.8,10.5,15.3,17.9
				c7.9,10.8,14,22.7,18.2,35.5c1.1,3.4,2,6.9,2.9,10.3c0.4,1.4,0.7,2.8,1.1,4.2c0.2,0.7,0.4,0.9,0.8,1c6.4,2.9,12,6.2,16.7,10
				c4.8,3.9,10.6,9.3,12.9,17.6c1.7,6,1.1,12-1.9,17.7c-2.9,5.8-7.6,10.8-14.7,15.6c-8.1,5.5-17.4,9.7-29.5,13.3
				c-13,4-26.7,6.5-40.6,7.6c-7,0.5-14,0.9-20.1,1.2C162.4,233.9,159,234.1,159,234.1L159,234.1z M75.8,161
				c-2.1,1.2-4.2,2.3-6.2,3.6c-6,3.9-9.8,7.7-12.3,12.3c-2.4,4.4-2.9,8.6-1.4,13c1.4,4.1,4.1,7.8,8.3,11.5
				c6.6,5.7,14.2,9.3,20.1,11.8c8.5,3.5,17.9,6.3,29.5,8.7c8.7,1.7,18,3,27.5,3.7c6,0.5,12.1,0.7,18,0.7c7.2,0,14.4-0.3,21.6-1
				c12.1-1.1,23.6-3,34-5.7c11.2-2.9,20.7-6.4,29.1-10.9c5.4-3,11.5-6.8,15.9-12.8c3.3-4.5,4.5-8.7,3.8-13.3c-0.5-3.2-2-6.3-4.4-9.3
				c-2.9-3.7-6.6-6.8-12-10.1c-1.5-0.9-3-1.8-5.1-2.9c0.9,7.8,1.8,16,1.6,24.2v0.7l-0.7,0.2c-2,0.7-3.8,1.4-5.5,2.1h-0.1
				c-5.6,1.9-11.2,3.9-16.7,5.9c-5.6,2-11.2,4-16.8,5.9c-7.2,2.5-14.5,5.1-21.7,7.7c-7.2,2.6-14.5,5.2-21.7,7.7
				c-0.3,0.1-0.7,0.2-1.1,0.2c-0.4,0-0.8-0.1-1.2-0.2c-1.8-0.6-3.7-1.3-5.6-2c-1.9-0.7-3.7-1.3-5.6-2c-7.8-2.8-15.6-5.5-23.5-8.3
				c-7.8-2.8-15.6-5.5-23.4-8.3s-15.7-5.5-23.4-8.2c-0.6-0.2-1.8-0.6-1.8-2.2c0.1-2.1,0.2-4.1,0.3-6.1c0.1-3,0.3-6.1,0.5-9.1
				c0.1-2.1,0.4-4.2,0.6-6.2c0.1-0.7,0.2-1.3,0.2-2C76.5,160.6,76.1,160.8,75.8,161z M159.6,61.1c-0.2,0-0.4,0-0.5,0.1
				c-1.2,0.5-2.6,1.2-4,2c-8.7,4.6-16.9,10.1-24.9,16.9c-7.7,6.4-14.8,13.9-20.9,22c-8.8,11.7-15.5,24.6-19.7,38.2
				c-3.8,12.2-6,25.2-6.3,38.7c0,0.8,0.1,0.9,0.7,1c2.4,0.8,4.7,1.6,7,2.5c1.5,0.5,2.9,1.1,4.4,1.6l23.7,8.4
				c6.7,2.4,13.3,4.7,19.9,7.1c6.6,2.3,13.2,4.7,19.9,7c0.3,0.1,0.6,0.2,0.9,0.2c0.3,0,0.6-0.1,0.8-0.1c8.5-3,17.5-6.2,27.8-9.8
				c6.9-2.5,13.9-4.9,20.8-7.4c6.9-2.4,13.8-4.9,20.7-7.3c1.1-0.4,2.3-0.9,3.4-1.3c0.9-0.3,1.9-0.7,2.8-1v-0.1
				c-0.2-7.1-0.6-14.8-2.1-22.2c-1.2-5.6-2.7-12.3-4.8-19.1c-2.9-9.4-7.4-18.8-13.8-28.6c-4.5-7-9.8-13.7-15.8-19.7
				c-4.6-4.7-9.4-8.8-13.5-12.2c-7.7-6.4-16.5-11.9-26-16.5C160,61.1,159.8,61.1,159.6,61.1z"/>
			<path class="st2" d="M159.7,53.8c0.8,0,1.7,0.2,2.6,0.6c8.4,4,16.3,8.8,23.8,14.4c5.7,4.2,11.1,8.8,16.2,13.8
				c5.6,5.5,10.5,11.5,15.2,17.8c7.9,10.8,13.9,22.5,18.1,35.2c1.6,4.7,2.7,9.6,4,14.4c0.2,0.9,0.6,1.4,1.4,1.7
				c5.8,2.6,11.4,5.8,16.4,9.8c5.7,4.6,10.5,9.8,12.6,17.1c1.7,5.9,1,11.6-1.8,17c-3.3,6.5-8.5,11.2-14.4,15.2
				c-9,6.1-18.9,10.1-29.2,13.2c-13.2,4-26.7,6.5-40.4,7.6c-9,0.7-17.9,1.1-25.2,1.5c-8.3-0.4-15-0.6-21.7-1.2
				c-15.8-1.3-31.4-4-46.5-9c-8.2-2.7-16.1-6.1-23.4-10.8c-6-3.8-11.5-8.3-15.2-14.5c-5.4-9-5.1-17.9,0.8-26.6
				c3.7-5.5,8.7-9.7,14.3-13.2c3.6-2.2,7.5-4,11.2-6.1c0.5-0.3,1-0.9,1.2-1.5c1.8-7.8,4.1-15.4,7.2-22.8c4-9.6,8.9-18.6,15.1-26.9
				c3.1-4.2,6.5-8.1,9.8-12c6.2-7.2,13.3-13.5,20.9-19.2c7.7-5.8,15.8-10.7,24.5-14.9C158.1,54,158.9,53.8,159.7,53.8 M159.7,207.6
				c0.4,0,0.9-0.1,1.2-0.2c9.2-3.2,18.5-6.5,27.7-9.8c13.8-4.9,27.7-9.8,41.5-14.7c2.3-0.9,4.6-1.7,6.9-2.6c0-0.3,0-0.6,0-0.8
				c-0.2-7.5-0.6-15-2.1-22.4c-1.4-6.5-2.9-12.9-4.8-19.2c-3.2-10.3-8.1-19.9-13.9-28.9c-4.6-7.2-9.9-13.8-15.9-19.9
				c-4.3-4.4-8.9-8.4-13.6-12.3c-8-6.6-16.8-12.1-26.2-16.6c-0.2-0.1-0.6-0.1-0.9-0.1c-0.3,0-0.6,0.1-0.8,0.1
				c-1.4,0.6-2.8,1.3-4.1,2c-9,4.7-17.3,10.4-25.1,17c-7.9,6.6-14.9,14-21.1,22.2c-8.8,11.7-15.5,24.5-19.9,38.5
				c-4,12.7-6,25.7-6.3,39c0,1.1,0.3,1.7,1.4,2c3.8,1.3,7.6,2.7,11.3,4c7.9,2.8,15.8,5.6,23.7,8.4c13.3,4.7,26.5,9.4,39.8,14.1
				C158.9,207.5,159.3,207.6,159.7,207.6 M159.6,214c-0.3,0-0.6-0.1-0.8-0.2c-3.7-1.3-7.5-2.7-11.2-4c-15.6-5.5-31.3-11.1-46.9-16.6
				c-7.8-2.8-15.6-5.5-23.4-8.2c-0.6-0.2-1.1-0.4-1.1-1.3c0.3-5,0.4-10.1,0.8-15.1c0.2-3.5,0.7-6.7,1-10c-0.4,0.2-0.6,0.2-0.9,0.4
				c-2.7,1.5-5.4,2.9-8,4.6c-5.1,3.3-9.7,7.2-12.6,12.7c-2.4,4.4-3.1,8.9-1.5,13.8c1.7,4.9,4.8,8.6,8.6,11.9
				c6.1,5.3,13.1,8.9,20.4,12c9.6,4,19.6,6.7,29.7,8.8c9.1,1.8,18.3,3,27.6,3.7c6,0.5,12.1,0.7,18.1,0.7c7.2,0,14.5-0.3,21.7-1
				c11.5-1,23-2.8,34.2-5.7c10.2-2.6,20-6,29.3-11c6.2-3.4,12-7.3,16.2-13.1c3.1-4.2,4.8-8.7,4-14c-0.6-3.7-2.3-6.9-4.6-9.8
				c-3.4-4.3-7.7-7.5-12.3-10.3c-2.1-1.3-4.3-2.5-6.8-3.8c1.1,8.9,2,17.4,1.8,26c-2,0.7-3.8,1.4-5.6,2.1
				c-11.2,3.9-22.3,7.9-33.5,11.8c-14.5,5.1-28.9,10.3-43.4,15.4C160.2,214,159.9,214,159.6,214 M159.7,51.8L159.7,51.8
				c-1.1,0-2.2,0.3-3.4,0.8c-8.9,4.3-17.1,9.3-24.8,15.1c-8.4,6.3-15.3,12.7-21.2,19.5c-0.5,0.6-1,1.2-1.5,1.8
				c-2.8,3.3-5.7,6.7-8.4,10.3c-6,8.1-11,17-15.3,27.3c-2.9,7-5.3,14.5-7.3,23c-0.1,0.1-0.2,0.3-0.3,0.4c-1.5,0.8-3.1,1.7-4.6,2.5
				c-2.2,1.1-4.4,2.3-6.6,3.6c-6.6,4.1-11.4,8.6-14.9,13.8c-6.4,9.4-6.7,19.1-0.9,28.7c3.4,5.6,8.4,10.4,15.8,15.2
				c6.8,4.3,14.6,8,23.8,11c14.1,4.7,29.5,7.7,47,9.1c5.1,0.5,10.1,0.7,16,0.9c1.9,0.1,3.8,0.2,5.8,0.3h0.1h0.1
				c1.6-0.1,3.3-0.2,5.1-0.3c6.2-0.3,13.2-0.7,20.2-1.2c14-1.1,27.7-3.7,40.8-7.7c12.1-3.7,21.6-7.9,29.7-13.5
				c7.2-4.9,12-10,15.1-16s3.7-12.2,1.9-18.5c-2.5-8.5-8.4-14.2-13.3-18.1c-4.8-3.8-10.4-7.2-16.8-10.1h-0.1h-0.1h-0.1
				c0,0,0-0.1-0.1-0.2l0,0l0,0c-0.4-1.4-0.7-2.8-1.1-4.2c-0.9-3.4-1.8-6.9-2.9-10.3c-4.2-12.8-10.4-24.9-18.4-35.7
				c-5.5-7.4-10.4-13.2-15.4-18c-5.1-5-10.7-9.7-16.4-14c-7.5-5.8-15.7-10.7-24-14.7l0,0l0,0C161.9,52,160.8,51.8,159.7,51.8
				L159.7,51.8z M159.5,62.1h0.1h0.1c9.4,4.5,18.1,10,25.7,16.3c4.1,3.4,8.9,7.5,13.4,12.2c5.9,6,11.2,12.6,15.6,19.6
				c6.3,9.8,10.8,19.1,13.7,28.4c2,6.7,3.5,13.4,4.8,19c1.4,7.1,1.8,14.5,2,21.4c-0.7,0.3-1.4,0.5-2.1,0.8c-1.1,0.4-2.3,0.8-3.5,1.3
				c-6.9,2.4-13.8,4.9-20.7,7.3c-6.9,2.5-13.9,4.9-20.8,7.4c-10.2,3.7-19.3,6.9-27.7,9.8H160h-0.1c-0.1,0-0.2,0.1-0.4,0.1
				s-0.4,0-0.4-0.1H159h-0.1c-6.6-2.3-13.3-4.7-19.9-7c-6.6-2.4-13.3-4.7-19.9-7.1l-23.7-8.4c-1.4-0.5-2.9-1-4.4-1.6
				c-2.3-0.8-4.6-1.7-6.9-2.5l0,0v-0.1c0.3-13.3,2.4-26.3,6.2-38.4c4.2-13.5,10.8-26.3,19.6-37.9c6.1-8.1,13.1-15.5,20.8-21.9
				c8-6.8,16.1-12.2,24.7-16.8C157,63.2,158.4,62.6,159.5,62.1L159.5,62.1z M161.1,215.8c7.2-2.5,14.6-5.2,21.7-7.7
				c7.1-2.5,14.4-5.1,21.7-7.7c5.6-1.9,11.3-4,16.8-5.9s11.1-3.9,16.7-5.9l0,0l0,0c1.8-0.7,3.6-1.4,5.5-2.1l1.3-0.5v-1.4
				c0.2-7.7-0.5-15.2-1.4-22.5c1.2,0.7,2.3,1.3,3.3,1.9c5.3,3.3,9,6.3,11.8,9.8c2.3,2.9,3.7,5.8,4.2,8.9c0.6,4.3-0.5,8.3-3.6,12.5
				c-4.2,5.9-10.2,9.6-15.6,12.5c-8.2,4.4-17.7,8-28.8,10.8c-10.4,2.7-21.8,4.6-33.9,5.6c-7.2,0.6-14.4,1-21.5,1
				c-5.9,0-12-0.2-17.9-0.7c-9.4-0.7-18.7-1.9-27.4-3.7c-11.5-2.4-20.9-5.2-29.3-8.7c-5.9-2.5-13.4-6.1-19.9-11.7
				c-4.1-3.6-6.6-7-8-11c-1.3-4.1-0.9-8,1.4-12.2c2.4-4.5,6-8.2,11.9-12c1.8-1.2,3.6-2.2,5.4-3.2v0.1c-0.2,2-0.5,4.1-0.6,6.3
				c-0.2,3-0.4,6.1-0.5,9.1c-0.1,2-0.2,4-0.3,6v0.1v0.1c0,2.4,1.9,3,2.5,3.2c7.6,2.6,15.6,5.4,23.4,8.2s15.6,5.5,23.5,8.3
				c7.8,2.8,15.7,5.6,23.5,8.3c1.8,0.6,3.7,1.3,5.6,2c1.9,0.7,3.7,1.3,5.6,2c0.5,0.2,1,0.3,1.5,0.3C160.1,216,160.6,216,161.1,215.8
				L161.1,215.8z"/>
		</g>
	</g>
	<g>
		<path class="st1" d="M184.7,144.8c-0.6,13.4-6.4,24.1-17.3,31.9c-2,1.5-4.3,2.5-6.5,3.8c-0.9,0.5-1.7,0.4-2.6,0
			c-6.1-2.8-11.2-6.9-15.3-12.2c-6-7.6-8.5-16.4-8.6-25.9c0-1,0.3-1.4,1.2-1.7c6.5-2.3,13-4.4,19.3-6.9c3.4-1.4,6.3-1.3,9.6,0.1
			c6.1,2.4,12.3,4.5,18.4,6.5c1.6,0.5,2.2,1.3,1.9,2.9C184.7,143.7,184.7,144.2,184.7,144.8z M178.9,145.4c-0.2-0.1-0.5-0.5-0.9-0.6
			c-5.9-2.1-11.8-4.2-17.7-6.3c-0.4-0.1-0.8-0.2-1.2-0.1c-6,2.1-12,4.3-18,6.5c-0.3,0.1-0.8,0.8-0.7,1.2c0.7,3.5,1.2,7,2.4,10.3
			c2.8,7.9,8.4,13.5,15.6,17.7c0.9,0.5,1.7,0.5,2.6-0.1c3.9-2.3,7.4-5.1,10.3-8.6C175.9,159.8,178.3,153.2,178.9,145.4z"/>
	</g>
</g>
<g>
	<path class="st2" d="M321.9,216.3V74.1h87.2L403,97.2h-52.1v35.9h48.3v22.5h-48.3v37.9h58.4l-6.7,22.9H321.9z"/>
	<path class="st2" d="M426.4,216.3v-90.2l26-13v14.6c2.2-2.7,4.2-4.7,5.9-5.9c1.7-1.2,4.1-2.5,7.3-3.8c5.4-2.5,10.8-3.7,16.2-3.7
		c2.8,0,5,0.1,6.7,0.4c1.7,0.3,4,1,6.9,2.1c2.9,1.2,5.5,2.7,7.8,4.6c2.3,1.9,5.1,5,8.4,9.3c7.8-10.9,18.5-16.4,32.4-16.4
		c10.9,0,19.5,3,25.8,9.1c6.3,6.1,9.5,14.5,9.5,25.3v67.7h-26V155c0-3.9-0.3-6.8-0.8-8.5c-0.5-1.7-1.7-3.5-3.6-5.3
		c-3.2-3.3-7.8-4.9-14-4.9c-12.8,0-19.1,6.4-19.1,19.1v61h-26v-60.2c0-3.6-0.3-6.3-1-8.4c-0.7-2-1.8-4-3.4-5.9
		c-1.6-1.9-3.6-3.3-6-4.2c-2.4-0.9-5.2-1.4-8.4-1.4c-12.4,0-18.5,6.4-18.5,19.1v61H426.4z"/>
	<path class="st2" d="M703.1,151.6l-70,36.1c4.1,4.2,7.8,7.2,11,9c3.3,1.8,6.8,2.7,10.7,2.7c3.8,0,7.6-1,11.2-3
		c4.1-1.7,8.3-5.6,12.8-11.6L697,196c-1.1,1.4-2.2,2.9-3.4,4.4c-1.2,1.5-2.8,3.1-4.7,4.8c-4.3,4.5-9.8,8-16.4,10.6
		c-6.6,2.6-13.3,3.8-20.1,3.8c-15,0-27.6-5-37.8-15.1c-10.2-10.1-15.3-22.6-15.3-37.5c0-14.9,5.1-27.5,15.2-37.8
		c10.1-10.3,22.7-15.4,37.7-15.4c13.8,0,25.6,4.5,35.3,13.5c3.6,3.2,6.3,6.4,8.4,9.6C697.9,140.3,700.3,145.1,703.1,151.6z
		 M624.3,170.5l50.9-25.8c-1.8-2.7-3.6-4.6-5.2-5.9c-1.6-1.3-3.9-2.5-6.8-3.7c-1.7-0.5-3.3-0.9-4.8-1.2s-3.3-0.4-5.4-0.4
		c-7.9,0-14.8,2.9-20.7,8.7s-8.9,12.6-8.9,20.4L624.3,170.5z"/>
	<path class="st2" d="M718.9,216.3v-90l25.3-13.2v18c2.4-3.6,4.4-6.2,6.2-7.9c1.8-1.7,4.1-3.3,7-4.6c2.9-1.4,5.6-2.4,8-3.1
		c2.4-0.7,5-1,7.6-1c1.3,0,2.4,0,3.4,0c0.9,0,2.9,0.3,5.9,0.8l-5.7,25.3l-7.7-1c-2,0-4.3,0.5-7,1.4c-2.7,0.9-5,2.1-6.8,3.6
		c-6.3,4.5-9.5,12-9.5,22.5v49.3H718.9z"/>
	<path class="st2" d="M858.7,126.9v-10.3H884v96.2c0,7.5-1,13.6-2.9,18.2c-1.9,4.6-5.3,8.9-10.2,12.8c-9.3,7.8-22.4,11.7-39.1,11.7
		c-7.6,0-14-0.6-19.2-1.8c-5.2-1.2-9.2-2.4-12.1-3.6c-2.9-1.3-7.2-3.6-13-7l10.5-18.7c3.7,2.7,6.4,4.5,8.2,5.4
		c1.8,0.9,4,1.9,6.8,2.8c5.8,2,11.8,3,18.2,3c8.8,0,15.6-1.9,20.4-5.7c4.8-3.8,7.2-9,7.2-15.8v-11.1l-3.7,4.3
		c-2.8,2.9-6.5,5.2-11.3,6.9c-4.8,1.7-10,2.6-15.7,2.6c-13.4,0-24.3-4.7-32.6-14c-8.3-9.3-12.4-21.7-12.4-37.1
		c0-15,4.3-27.3,12.9-36.8c8.6-9.5,19.7-14.3,33.2-14.3c5.5,0,10.9,1.1,16.2,3.2c2.6,1.1,4.8,2.1,6.5,3.3
		C853.5,122.2,855.9,124.2,858.7,126.9z M810.4,165.8v2c0,8.8,2.3,15.9,7,21.2c4.7,5.3,10.8,8,18.3,8c9.1,0,15.4-3.2,18.9-9.7
		c1.3-2.4,2.2-4.7,2.6-7c0.4-2.3,0.6-6,0.6-11v-3.6v-12.4c0-1.4-0.2-2.9-0.7-4.4c-0.5-1.5-1.1-3-1.9-4.4c-1.7-2.8-4.3-5-7.9-6.8
		c-3.5-1.8-7.2-2.7-11-2.7c-7.7,0-13.9,2.8-18.7,8.5C812.8,149.2,810.4,156.6,810.4,165.8z"/>
	<path class="st2" d="M1007.7,151.6l-70,36.1c4.1,4.2,7.8,7.2,11,9s6.8,2.7,10.7,2.7c3.8,0,7.6-1,11.2-3c4.1-1.7,8.3-5.6,12.8-11.6
		l18.2,11.2c-1.1,1.4-2.2,2.9-3.4,4.4c-1.2,1.5-2.8,3.1-4.7,4.8c-4.3,4.5-9.8,8-16.4,10.6c-6.6,2.6-13.3,3.8-20.1,3.8
		c-15,0-27.6-5-37.8-15.1c-10.2-10.1-15.3-22.6-15.3-37.5c0-14.9,5.1-27.5,15.2-37.8c10.1-10.3,22.7-15.4,37.7-15.4
		c13.8,0,25.6,4.5,35.3,13.5c3.6,3.2,6.3,6.4,8.4,9.6C1002.5,140.3,1005,145.1,1007.7,151.6z M928.9,170.5l50.9-25.8
		c-1.8-2.7-3.6-4.6-5.2-5.9c-1.6-1.3-3.9-2.5-6.8-3.7c-1.7-0.5-3.3-0.9-4.8-1.2s-3.3-0.4-5.4-0.4c-7.9,0-14.8,2.9-20.7,8.7
		c-5.9,5.8-8.9,12.6-8.9,20.4L928.9,170.5z"/>
	<path class="st2" d="M1023.5,126.1l25.3-13v16.4l5.9-6.1c7.1-6,16.1-9.1,27-9.1c11.3,0,20.7,3.4,28.2,10.3
		c5.9,5.8,8.9,14.2,8.9,25.3v66.5h-26.6v-59.1c0-6.3-1.3-11.1-3.9-14.2c-3.8-4.1-9.1-6.1-15.8-6.1c-6.4,0-11.8,2.2-16,6.5
		c-4.2,4.4-6.3,9.9-6.3,16.6v56.4h-26.4L1023.5,126.1z"/>
	<path class="st2" d="M1224,122l-7.1,20.7c-7.9-4.7-15-7.1-21.3-7.1c-8.2,0-15.1,2.9-20.8,8.8c-5.7,5.8-8.6,13.1-8.6,21.7
		c0,8.7,3,16,9,21.9c6,6,13.2,8.9,21.8,8.9c5,0,11.5-2,19.5-5.9l7.3,19.1c-7,3.6-12.8,6-17.4,7.4c-4.6,1.3-9.5,2-14.8,2
		c-14.6,0-27.1-5.1-37.4-15.3c-10.3-10.2-15.5-22.7-15.5-37.4c0-15,5.2-27.6,15.6-37.9c10.4-10.3,23.1-15.4,38.1-15.4
		c5.7,0,10.5,0.5,14.4,1.6C1210.7,116.2,1216.5,118.5,1224,122z"/>
	<path class="st2" d="M1240.9,216.3V87.1l29-13v142.3H1240.9z"/>
	<path class="st2" d="M1280,216.3l49.5-142.3h30.6l49.3,142.3h-31.6l-11.4-37.7h-43.2l-11.6,37.7H1280z M1342.3,107.8l-14.6,49.9
		h34.1l-14.4-49.9c-0.7-2.2-1.2-4.4-1.6-6.5c-0.4-2.1-0.7-4.3-1-6.7c-0.4,3.7-0.7,6.2-0.9,7.4
		C1343.8,103.2,1343.3,105.2,1342.3,107.8z"/>
</g>
</svg>
