<?xml version="1.0" encoding="utf-8"?>
<!-- Generator: Adobe Illustrator 25.2.3, SVG Export Plug-In . SVG Version: 6.00 Build 0)  -->
<svg version="1.1" id="Layer_1" xmlns="http://www.w3.org/2000/svg" xmlns:xlink="http://www.w3.org/1999/xlink" x="0px" y="0px"
	 viewBox="0 0 3403 500" style="enable-background:new 0 0 3403 500;" xml:space="preserve">
<style type="text/css">
	.st0{fill:#FFFFFF;}
</style>
<path class="st0" d="M303.7,75.1V55.2V43l-12.1,0.5l-17.7,0.7c-2.5,0.1-5,0.2-7.5,0.2c-35.5,0-68.4-10.8-97.7-32.2l-10-7.3l-6.9-5
	L145,5l-10,7.3c-29.3,21.4-62.2,32.2-97.7,32.2c-2.5,0-5-0.1-7.6-0.2L12,43.6L0,43v12.1v17.7v2.8v0.1v0.1c0.2,14,0.4,28.5,0.9,43.3
	l0,0l0,0c0.9,25.5,4.1,51.2,9.6,76.3l0,0l0,0c9.7,43.5,27.9,82.8,53.9,116.7c9.2,12.1,19.4,23.6,31.1,35.1
	c11.4,11.2,24.2,22.3,39.2,33.8l8.4,6.5l5.8,4.5l6.5-3.2l9.5-4.7c3.1-1.5,5.8-3.5,8.2-6c2.6-2.2,5.3-4.4,7.9-6.5l0.4-0.3
	c6.9-5.7,14.1-11.7,21.1-18.2c28.4-26.2,50.9-56.2,67-89.1c17.4-35.4,27.8-74.9,31.8-120.7C303.2,123.4,304,101.7,303.7,75.1z
	 M228.3,175.2c-5.9,29.4-16.5,56.2-31.5,79.7c-11.9,18.7-26.5,35.8-44.7,52.2c-10.9-10-20.9-20.5-29.7-31.4
	c-22.9-28.2-38.4-61.5-46.1-98.9l0,0l0,0c-4.1-19.2-6.6-40.2-7.4-64.3v-0.1v-0.1c0-0.5,0-1.1-0.1-1.6c29.8-4,57.7-13.4,83.3-28.1
	c25.1,14.4,53,23.9,83.3,28.1C234.5,135.2,232.2,155.9,228.3,175.2z"/>
<g>
	<path class="st0" d="M402.2,392.2V0.2h240.7L626.2,64H482.5v99h133.3v62H482.5v104.4h161.1l-18.5,63.1L402.2,392.2L402.2,392.2z"/>
	<path class="st0" d="M690.7,392.2V143.5l71.8-35.8v40.2c6-7.4,11.6-13,16.2-16.2c4.8-3.3,11.3-6.9,20.1-10.4
		c15-6.9,29.8-10.2,44.8-10.2c7.8,0,13.8,0.4,18.5,1.1c4.8,0.9,11.1,2.8,19,5.8c7.9,3.3,15.2,7.4,21.5,12.7
		c6.3,5.3,14.1,13.7,23.1,25.7c21.5-30.3,51.1-45.4,89.4-45.4c30.1,0,53.8,8.3,71.2,25c17.5,16.7,26.3,40,26.3,69.7v186.5h-71.8V223
		c0-10.7-0.9-18.7-2.3-23.4s-4.8-9.7-9.9-14.6c-8.8-9.2-21.5-13.6-38.6-13.6c-35.3,0-52.7,17.6-52.7,52.7v168.2h-71.8v-166
		c0-9.9-0.9-17.4-2.8-23.1c-1.9-5.5-4.9-11.1-9.3-16.2c-4.4-5.3-9.9-9.2-16.6-11.6c-6.7-2.5-14.3-3.9-23.1-3.9
		c-34.2,0-51.1,17.6-51.1,52.7v168.2h-71.9L690.7,392.2L690.7,392.2z"/>
	<path class="st0" d="M1454.1,213.8L1261,313.3c11.3,11.6,21.5,19.9,30.3,24.8c9.2,4.9,18.7,7.4,29.4,7.4c10.4,0,21-2.8,30.9-8.3
		c11.3-4.8,22.9-15.5,35.3-32.1l50.2,30.8c-3,3.9-6,7.9-9.3,12.2c-3.3,4.1-7.8,8.6-13,13.2c-11.8,12.3-27,22-45.3,29.2
		c-18.2,7.2-36.7,10.4-55.5,10.4c-41.4,0-76.2-13.7-104.4-41.6c-28.2-27.8-42.1-62.3-42.1-103.4s14.1-75.7,42-104.3
		c27.9-28.4,62.6-42.4,104-42.4c38.1,0,70.7,12.3,97.3,37.2c9.9,8.8,17.5,17.6,23.1,26.4C1439.8,182.6,1446.3,195.8,1454.1,213.8z
		 M1236.7,265.9l140.5-71.2c-4.9-7.4-9.9-12.7-14.3-16.2s-10.8-6.9-18.7-10.2c-4.8-1.4-9.2-2.5-13.2-3.3c-4.1-0.9-9.2-1.1-15-1.1
		c-21.9,0-40.9,7.9-57.1,24s-24.7,34.7-24.7,56.2L1236.7,265.9z"/>
	<path class="st0" d="M1497.6,392.2V144.1l69.8-36.3v49.7c6.7-9.9,12.2-17.1,17.1-21.8c4.9-4.8,11.3-9.2,19.4-12.7
		c7.9-3.9,15.5-6.7,22-8.6c6.7-1.9,13.8-2.8,21-2.8c3.5,0,6.7,0,9.3,0c2.5,0,7.9,0.9,16.2,2.3l-15.7,69.7l-21.3-2.8
		c-5.5,0-11.8,1.4-19.4,3.9c-7.4,2.5-13.8,5.8-18.7,9.9c-17.5,12.3-26.3,33.1-26.3,62v136h-73.7v-0.2h0.3V392.2z"/>
	<path class="st0" d="M1883.4,145.6v-28.4h69.8v265.1c0,20.6-2.8,37.5-7.9,50.2c-5.3,12.7-14.6,24.5-28.2,35.2
		c-25.7,21.5-61.9,32.2-107.9,32.2c-21,0-38.6-1.6-52.9-4.9s-25.4-6.7-33.3-9.9c-7.9-3.5-19.9-9.9-35.8-19.4l28.9-51.6
		c10.2,7.4,17.6,12.3,22.6,15c4.9,2.6,11.1,5.3,18.7,7.7c16,5.5,32.6,8.3,50.2,8.3c24.3,0,43-5.3,56.2-15.7
		c13.2-10.4,19.9-24.8,19.9-43.5v-30.6l-10.2,11.8c-7.8,7.9-18,14.3-31.2,19s-27.5,7.2-43.4,7.2c-37,0-67-13-89.9-38.6
		c-22.9-25.5-34.2-59.9-34.2-102.3c0-41.4,11.8-75.2,35.6-101.4s54.3-39.5,91.7-39.5c15.2,0,30.1,3,44.8,8.8c7.2,3,13.2,5.8,18,9.2
		C1869.1,132.8,1875.7,138.3,1883.4,145.6z M1750.1,252.9v5.5c0,24.3,6.3,43.9,19.4,58.5s29.8,22,50.4,22c25,0,42.5-8.8,52.2-26.8
		c3.5-6.7,6-13,7.2-19.4c1.1-6.3,1.6-16.6,1.6-30.3v-9.9v-34.2c0-3.9-0.5-7.9-1.9-12.2c-1.4-4.1-3-8.3-5.3-12.2
		c-4.8-7.7-11.8-13.7-21.9-18.7c-9.7-4.9-19.9-7.4-30.3-7.4c-21.3,0-38.4,7.7-51.7,23.4C1756.8,207.1,1750.1,227.5,1750.1,252.9z"/>
	<path class="st0" d="M2294.6,213.8l-193.1,99.5c11.3,11.6,21.5,19.9,30.3,24.8s18.7,7.4,29.4,7.4c10.4,0,21-2.8,30.9-8.3
		c11.3-4.8,22.9-15.5,35.3-32.1l50.2,30.8c-3,3.9-6,7.9-9.3,12.2c-3.4,4.1-7.8,8.6-13,13.2c-11.8,12.3-27,22-45.3,29.2
		c-18.2,7.2-36.7,10.4-55.5,10.4c-41.4,0-76.2-13.7-104.4-41.6c-28.2-27.8-42.1-62.3-42.1-103.4s14.1-75.7,42-104.3
		c27.9-28.4,62.6-42.4,104-42.4c38.1,0,70.7,12.3,97.3,37.2c9.9,8.8,17.5,17.6,23.1,26.4C2280.1,182.6,2287,195.8,2294.6,213.8z
		 M2077.2,265.9l140.5-71.2c-4.9-7.4-9.9-12.7-14.3-16.2s-10.8-6.9-18.7-10.2c-4.8-1.4-9.2-2.5-13.2-3.3c-4.1-0.9-9.2-1.1-15-1.1
		c-21.9,0-40.9,7.9-57.1,24c-16.2,16-24.5,34.7-24.5,56.2L2077.2,265.9z"/>
	<path class="st0" d="M2338.1,143.5l69.8-35.8V153l16.2-16.7c19.6-16.6,44.4-25,74.6-25c31.2,0,57.1,9.3,77.8,28.4
		c16.2,16,24.5,39.1,24.5,69.7v183.3h-73.3V229.8c0-17.4-3.5-30.6-10.8-39.1c-10.4-11.3-25-16.7-43.5-16.7c-17.6,0-32.6,6-44.1,18
		c-11.6,12.2-17.5,27.3-17.5,45.8v155H2339L2338.1,143.5z"/>
	<path class="st0" d="M2891.4,132.3l-19.6,57.1c-21.9-13-41.4-19.5-58.7-19.5c-22.6,0-41.6,7.9-57.5,24.3
		c-15.7,16-23.8,36.1-23.8,59.9c0,24,8.3,44,24.9,60.4c16.6,16.6,36.5,24.5,60.1,24.5c13.8,0,31.7-5.5,53.8-16.2l20.1,52.7
		c-19.4,9.9-35.3,16.6-48,20.4c-12.7,3.5-26.3,5.5-40.9,5.5c-40.2,0-74.8-14.1-103.1-42.1s-42.8-62.5-42.8-103
		c0-41.4,14.3-76.1,43-104.4s63.8-42.4,105.1-42.4c15.7,0,28.9,1.4,39.7,4.4C2854.7,116.2,2870.6,122.6,2891.4,132.3z"/>
	<path class="st0" d="M2937.9,392.2V36.1l80-35.8v392.2L2937.9,392.2L2937.9,392.2z"/>
	<path class="st0" d="M3045.8,392.2L3182.5,0h84.5l136,392.2h-87.3l-31.4-103.9h-119.2L3133,392.2H3045.8z M3217.7,93.2l-40.2,137.5
		h94.1l-39.8-137.5c-1.9-6-3.3-12.2-4.4-18s-1.9-11.8-2.8-18.5c-1.1,10.2-1.9,17.1-2.5,20.4C3222,80.5,3220.6,85.9,3217.7,93.2z"/>
</g>
</svg>
